<?xml version="1.0" standalone="no"?>
<!DOCTYPE svg PUBLIC "-//W3C//DTD SVG 20010904//EN"
 "http://www.w3.org/TR/2001/REC-SVG-20010904/DTD/svg10.dtd">
<svg version="1.0" xmlns="http://www.w3.org/2000/svg"
 width="500.000000pt" height="500.000000pt" viewBox="0 0 500.000000 500.000000"
 preserveAspectRatio="xMidYMid meet">
<metadata>
Created by potrace 1.14, written by Peter Selinger 2001-2017
</metadata>
<g transform="translate(0.000000,500.000000) scale(0.100000,-0.100000)"
fill="#000000" stroke="none">
<path d="M2290 4709 c-30 -4 -77 -10 -105 -13 -260 -31 -586 -148 -835 -300
-292 -179 -571 -457 -743 -740 -144 -239 -255 -530 -292 -766 -4 -25 -9 -54
-11 -65 -18 -93 -25 -375 -13 -511 9 -102 20 -198 24 -204 2 -3 6 -24 10 -48
8 -58 60 -242 92 -327 143 -386 377 -711 698 -970 253 -204 562 -355 883 -431
59 -14 125 -28 147 -30 22 -3 65 -9 95 -14 57 -9 506 -7 550 3 14 3 48 8 75
12 67 9 263 58 353 89 550 189 1015 596 1271 1113 113 226 182 450 216 693 13
95 15 127 15 280 0 164 -2 195 -15 300 -90 743 -589 1422 -1274 1735 -313 143
-596 203 -941 202 -80 -1 -170 -4 -200 -8z m505 -183 c50 -8 101 -17 115 -20
14 -3 39 -8 55 -12 34 -6 54 -12 175 -50 92 -29 102 -33 234 -93 632 -291
1086 -925 1163 -1624 10 -90 10 -414 0 -483 -33 -238 -94 -436 -198 -650 -213
-438 -601 -802 -1054 -989 -252 -105 -455 -145 -745 -150 -164 -3 -218 0 -360
19 -250 34 -600 173 -830 330 -106 73 -244 191 -336 288 -63 66 -224 269 -224
282 0 3 -13 24 -29 48 -15 24 -46 77 -68 118 -345 659 -313 1449 84 2060 271
416 649 705 1123 856 94 30 293 71 385 80 39 4 71 8 73 9 10 8 364 -7 437 -19z"/>
<path d="M2295 4419 c-97 -13 -126 -17 -205 -34 -79 -17 -244 -67 -295 -90
-16 -7 -64 -28 -105 -46 -149 -66 -352 -201 -489 -324 -46 -42 -166 -172 -226
-246 -80 -99 -203 -310 -260 -449 -26 -64 -81 -233 -89 -274 -2 -12 -9 -43
-16 -71 -6 -27 -14 -68 -16 -90 -3 -22 -9 -63 -13 -91 -12 -83 -10 -331 4
-439 57 -438 245 -824 549 -1128 205 -205 475 -375 743 -468 68 -23 237 -68
279 -73 16 -3 68 -10 116 -16 250 -34 541 -9 779 65 341 107 615 275 850 519
269 280 465 679 513 1044 3 23 9 61 12 85 10 68 11 274 2 377 -34 401 -206
802 -473 1100 -186 207 -359 340 -601 460 -107 53 -324 134 -394 146 -44 8
-64 12 -115 23 -27 5 -68 13 -90 16 -64 10 -394 13 -460 4z m-485 -863 c129
-13 285 -68 387 -137 61 -41 143 -109 143 -117 0 -4 -19 -27 -43 -52 -23 -25
-68 -76 -101 -113 l-59 -67 -36 32 c-82 74 -209 136 -316 153 -104 17 -249 -1
-323 -39 -118 -61 -147 -218 -56 -309 50 -49 130 -86 356 -162 331 -111 450
-183 540 -325 65 -101 92 -291 62 -430 -53 -250 -267 -427 -564 -467 -71 -9
-259 -9 -328 0 -156 21 -315 80 -422 156 -60 43 -140 112 -140 121 0 12 192
230 202 230 4 0 20 -10 34 -22 15 -13 40 -35 57 -49 98 -85 263 -140 422 -141
263 -2 421 125 402 323 -14 143 -79 192 -382 293 -251 84 -360 135 -455 213
-57 47 -125 129 -142 173 -39 97 -49 213 -28 317 46 219 262 390 530 420 30 3
56 6 57 7 4 4 140 -2 203 -8z m1822 0 c87 -10 166 -33 247 -72 72 -34 221
-132 221 -146 0 -4 -44 -58 -99 -121 l-98 -115 -39 34 c-34 30 -148 94 -178
101 -6 1 -22 5 -36 8 -196 46 -399 -7 -511 -135 -120 -136 -168 -314 -163
-605 5 -248 55 -413 166 -545 38 -45 118 -93 203 -121 44 -14 223 -18 295 -7
58 10 169 65 244 121 l59 44 93 -116 92 -116 -41 -38 c-159 -146 -363 -217
-609 -212 -376 8 -668 229 -792 598 -53 160 -73 383 -53 593 44 467 338 800
752 853 60 8 168 6 247 -3z"/>
<path d="M1520 3449 c-19 -5 -44 -11 -55 -13 -114 -25 -241 -113 -302 -209
-51 -80 -67 -217 -37 -317 48 -161 188 -258 544 -375 207 -68 295 -110 360
-171 74 -69 95 -126 95 -254 0 -96 -3 -110 -29 -163 -74 -146 -235 -230 -446
-231 -202 -1 -323 34 -472 135 l-58 39 -35 -38 c-19 -20 -35 -40 -35 -43 0
-11 122 -87 183 -114 70 -31 181 -61 257 -71 150 -18 342 -4 426 31 19 8 37
14 39 14 22 -1 121 59 165 98 102 91 150 199 152 335 3 161 -28 247 -122 339
-78 76 -186 129 -430 210 -209 69 -312 116 -373 170 -121 106 -129 304 -18
419 78 80 182 119 328 124 144 4 286 -33 401 -105 35 -21 65 -39 67 -39 2 0
20 17 39 37 l35 38 -67 42 c-79 50 -172 88 -266 107 -74 16 -289 19 -346 5z"/>
<path d="M3487 3464 c-1 -1 -33 -4 -72 -7 -103 -9 -149 -23 -254 -73 -75 -37
-108 -61 -171 -122 -124 -124 -186 -237 -229 -419 -39 -165 -43 -372 -11 -553
6 -36 12 -69 14 -75 57 -207 140 -339 285 -453 121 -96 270 -143 451 -143 147
-1 240 19 355 76 122 60 132 69 116 97 -7 13 -19 32 -27 43 -14 19 -15 19 -42
2 -59 -39 -190 -95 -247 -106 -80 -15 -205 -15 -285 -1 -268 48 -444 265 -486
600 -10 80 -10 331 0 423 22 210 122 398 273 513 50 38 157 78 246 92 138 22
280 -2 412 -68 l79 -40 26 32 c14 18 25 37 25 43 0 13 -180 103 -218 109 -15
3 -36 7 -46 11 -18 5 -189 23 -194 19z"/>
</g>
</svg>
